<svg xmlns="http://www.w3.org/2000/svg" width="25" height="20" viewBox="0 0 25 20" fill="none">
  <path
    d="M1 3.73894C1 3.07472 1.26925 2.43771 1.7485 1.96803C2.22776 1.49836 2.87778 1.2345 3.55556 1.2345H21.4444C22.1222 1.2345 22.7722 1.49836 23.2515 1.96803C23.7308 2.43771 24 3.07472 24 3.73894V16.2612C24 16.9254 23.7308 17.5624 23.2515 18.0321C22.7722 18.5017 22.1222 18.7656 21.4444 18.7656H3.55556C2.87778 18.7656 2.22776 18.5017 1.7485 18.0321C1.26925 17.5624 1 16.9254 1 16.2612V3.73894Z"
    stroke="#242424" stroke-width="1.5" stroke-linecap="round" stroke-linejoin="round" />
  <path d="M1 3.73901L12.5 11.2523L24 3.73901" stroke="#242424" stroke-width="1.5" stroke-linecap="round"
    stroke-linejoin="round" />
</svg>