<svg xmlns="http://www.w3.org/2000/svg" width="16" height="16" viewBox="0 0 16 16" >
  <path
    d="M15.9687 14.3106L14.6667 2.06063C14.6667 1.29047 14.07 0.666687 13.3333 0.666687H8H2.66667C1.93 0.666687 1.33333 1.29047 1.33333 2.06063L0.0313333 14.3106C0.012 14.406 0 14.5043 0 14.6061C0 15.3762 0.596667 16 1.33333 16H8H14.6667C15.4033 16 16 15.3762 16 14.6061C16 14.5043 15.988 14.406 15.9687 14.3106ZM11.3333 4.08741V4.84851C11.3333 6.77005 9.838 8.33335 8 8.33335C6.162 8.33335 4.66667 6.77005 4.66667 4.84851V4.08741C4.27933 3.94384 4 3.5605 4 3.10608C4 2.52899 4.448 2.06063 5 2.06063C5.552 2.06063 6 2.52899 6 3.10608V4.84851C6 6.00129 6.89733 6.93941 8 6.93941C9.10267 6.93941 10 6.00129 10 4.84851V3.10608C10 2.52899 10.448 2.06063 11 2.06063C11.552 2.06063 12 2.52899 12 3.10608C12 3.5605 11.7207 3.94384 11.3333 4.08741Z"
    />
</svg>